<svg width="0" height="0" class="hidden">
  <symbol fill="none" xmlns="http://www.w3.org/2000/svg" viewBox="0 0 16 17" id="educational">
    <path d="M2.526 0h10.948c.67 0 1.312.299 1.786.83A3.02 3.02 0 0116 2.835v10.393a3.02 3.02 0 01-.74 2.004c-.474.532-1.116.83-1.786.83H2.526c-.67 0-1.312-.298-1.786-.83A3.02 3.02 0 010 13.228V2.835C0 2.083.266 1.362.74.83 1.214.3 1.856 0 2.526 0zm0 .945c-.446 0-.875.199-1.19.553a2.013 2.013 0 00-.494 1.337h14.316c0-.502-.178-.982-.493-1.337a1.597 1.597 0 00-1.191-.553H2.526zM.842 13.228c0 .501.178.982.493 1.336.316.355.745.554 1.191.554h10.948c.446 0 .875-.2 1.19-.554.316-.354.494-.835.494-1.336V3.779H.842v9.449zm11.79 0H8.42v-.945h4.21v.945zM3.368 6.142l.596-.668 3.543 3.975-3.543 3.975-.596-.668 2.948-3.307-2.948-3.307z" fill="#fff"></path>
  </symbol>
  <symbol fill="none" xmlns="http://www.w3.org/2000/svg" viewBox="0 0 16 17" id="FAQ">
    <path d="M7.585 5.147l.067-.303a.715.715 0 00-.204-.501.69.69 0 00-.491-.208h-3.53l.64-2.436.004-.013a.72.72 0 00-.18-.684l-2.788 2.84a1.415 1.415 0 00-.407 1.002v2.833c0 .376.146.736.407 1.002s.615.415.984.415H4.87c.263 0 .52-.076.743-.22.223-.143.4-.347.514-.59h-.002l1.461-3.137zM4.87 9.802H2.087A2.068 2.068 0 01.611 9.18 2.145 2.145 0 010 7.677V4.844c0-.586.233-1.117.61-1.502L3.891 0l.492.5a1.442 1.442 0 01.353 1.395l-.402 1.532h2.623a1.395 1.395 0 011.193.688 1.436 1.436 0 01.034 1.395L6.792 8.506c-.16.384-.427.712-.77.943a2.06 2.06 0 01-1.152.353zm3.545 1.114l-.067.303a.71.71 0 00.204.5.69.69 0 00.491.208h3.53l-.641 2.437-.003.013a.722.722 0 00.18.684l2.788-2.84c.252-.257.407-.611.407-1.002V8.385a1.43 1.43 0 00-.407-1.001 1.379 1.379 0 00-.984-.415H11.13c-.263 0-.52.076-.743.219-.223.143-.4.348-.514.59h.002l-1.461 3.138zM11.13 6.26h2.783a2.07 2.07 0 011.476.623c.391.398.611.939.611 1.502v2.834a2.152 2.152 0 01-.61 1.502l-3.282 3.341-.491-.5a1.441 1.441 0 01-.353-1.395l.402-1.531H9.043c-.24 0-.476-.064-.685-.184a1.403 1.403 0 01-.508-.504 1.435 1.435 0 01-.034-1.396l1.392-2.995c.16-.384.427-.712.77-.943a2.06 2.06 0 011.152-.354z" fill="#fff"></path>
  </symbol>
  <symbol fill="none" xmlns="http://www.w3.org/2000/svg" viewBox="0 0 12 17" id="grants">
    <path d="M1 16.063v-4.725H0v-.945h1V7.56H0v-.945h1V0h7a4.12 4.12 0 012.828 1.107A3.677 3.677 0 0112 3.779a3.677 3.677 0 01-1.172 2.673A4.121 4.121 0 018 7.559H2v2.834h6v.945H2v4.725H1zm1-9.449h6c.796 0 1.559-.299 2.121-.83A2.758 2.758 0 0011 3.779c0-.751-.316-1.472-.879-2.004A3.091 3.091 0 008 .945H2v5.669z" fill="#fff"></path>
  </symbol>
  <symbol fill="none" xmlns="http://www.w3.org/2000/svg" viewBox="0 0 14 16" id="help">
    <path d="M5.351 7.957c.159-.136.304-.299.432-.484-.458-.921-.724-2.047-.724-3.24 0-.797.118-1.552.324-2.235-.321-.285-.688-.461-1.085-.461-1.215 0-2.199 1.53-2.199 3.42 0 1.321.484 2.466 1.19 3.035L.309 9.846c-.187.117-.309.397-.309.71v3.145c0 .421.22.763.49.763h1.97v-3.3c0-.853.354-1.626.902-1.968l1.99-1.239z" fill="#fff"></path>
    <path d="M13.623 10.287l-2.566-1.636-1.085-.692c.474-.4.859-1.015 1.11-1.757.21-.619.32-1.29.32-1.97 0-.4-.048-.78-.114-1.146C10.965 1.309 9.927 0 8.68 0 7.458 0 6.435 1.262 6.092 2.989a6.064 6.064 0 00.224 3.322c.26.713.646 1.3 1.115 1.678l-1.04.647-2.648 1.65c-.23.144-.382.49-.382.878v3.892c0 .521.272.944.608.944h9.423c.336 0 .608-.423.608-.944v-3.892c0-.386-.149-.73-.377-.877z" fill="#fff"></path>
  </symbol>
  <symbol fill="none" xmlns="http://www.w3.org/2000/svg" viewBox="0 0 16 17" id="information">
    <path d="M3.2 0h9.6c.849 0 1.663.267 2.263.743.6.475.937 1.12.937 1.793v10.99c0 .673-.337 1.318-.937 1.794-.6.475-1.414.742-2.263.742H3.2c-.849 0-1.663-.267-2.263-.742-.6-.476-.937-1.121-.937-1.794V2.536C0 1.864.337 1.218.937.743 1.537.267 2.351 0 3.2 0zm0 .845c-.566 0-1.108.179-1.508.496-.4.317-.625.747-.625 1.195v10.99c0 .449.224.879.625 1.196.4.317.942.495 1.508.495h9.6c.566 0 1.108-.178 1.508-.495.4-.317.625-.747.625-1.196V2.536c0-.448-.224-.878-.624-1.195-.4-.317-.943-.496-1.509-.496H3.2zm0 .846h9.6c.283 0 .554.089.754.247a.77.77 0 01.313.598v10.145c0 .224-.113.44-.313.598-.2.158-.471.247-.754.247H3.2c-.283 0-.554-.089-.754-.247a.768.768 0 01-.313-.598V2.536c0-.224.113-.44.313-.598.2-.158.471-.247.754-.247zm0 .845v10.145h9.6V2.536H3.2zm2.133 1.691h5.334v.845H5.333v-.845zm0 2.536h5.334v.846H5.333v-.846zm0 2.536h3.2v.846h-3.2v-.846z" fill="#fff"></path>
  </symbol>
  <symbol fill="none" xmlns="http://www.w3.org/2000/svg" viewBox="0 0 21 16" id="news">
    <g clip-path="url(#clip0)" fill="#fff">
      <path d="M18.5 14.5c.598 0 1-.402 1-1V.25a.25.25 0 10-.5 0V13.5c0 .435-.314.5-.5.5-.052 0-.5-.014-.5-.5V.25a.25.25 0 10-.5 0V13.5c0 .656.503 1 1 1zm-16.25-4h5a.25.25 0 00.25-.25v-4.5a.25.25 0 00-.25-.25h-5a.25.25 0 00-.25.25v4.5a.25.25 0 00.25.25zM2.5 6H7v4H2.5V6zm-.25-2h12a.25.25 0 00.25-.25v-2a.25.25 0 00-.25-.25h-12a.25.25 0 00-.25.25v2a.25.25 0 00.25.25zm.25-2H14v1.5H2.5V2zm11.75 3.5h-5a.25.25 0 000 .5h5a.25.25 0 000-.5zm0 1.5h-5a.25.25 0 000 .5h5a.25.25 0 000-.5zm0 1.5h-5a.25.25 0 000 .5h5a.25.25 0 000-.5zm0 1.5h-5a.25.25 0 100 .5h5a.25.25 0 100-.5zm0 1.5h-5a.25.25 0 100 .5h5a.25.25 0 100-.5zm-12 .5h5a.25.25 0 100-.5h-5a.25.25 0 100 .5zm12 1h-5a.25.25 0 100 .5h5a.25.25 0 100-.5zm-12 .5h5a.25.25 0 100-.5h-5a.25.25 0 100 .5z"></path>
      <path d="M2.5 15.973h16.01l.01-.002a2.475 2.475 0 002.454-2.471V.25a.224.224 0 00-.447 0V13.5a2.029 2.029 0 01-2.027 2.027 2.03 2.03 0 01-2.026-2.027V.25c0-.124-.1-.224-.224-.224h-16c-.124 0-.224.1-.224.224V13.5A2.476 2.476 0 002.5 15.973zM.473.473h15.553V13.5c0 .153.018.302.045.447l.016.087c.032.139.073.273.126.403l.031.069c.055.12.117.237.19.347.008.013.014.026.023.039.079.115.169.221.265.321l.064.064c.093.09.191.175.297.25H2.5A2.03 2.03 0 01.473 13.5V.473z"></path>
    </g>
    <defs>
      <clipPath id="clip0">
        <path fill="#fff" d="M0 0h21v16H0z"></path>
      </clipPath>
    </defs>
  </symbol>
  <symbol fill="none" xmlns="http://www.w3.org/2000/svg" viewBox="0 0 14 16" id="plan">
    <path d="M2.47 2.4h2.06c0-.637.26-1.247.723-1.697A2.508 2.508 0 017 0c.655 0 1.284.253 1.747.703.463.45.724 1.06.724 1.697h2.058c.656 0 1.284.253 1.747.703.464.45.724 1.06.724 1.697v8.8c0 .636-.26 1.247-.724 1.697A2.508 2.508 0 0111.53 16H2.471a2.508 2.508 0 01-1.747-.703A2.366 2.366 0 010 13.6V4.8c0-.637.26-1.247.724-1.697A2.508 2.508 0 012.47 2.4zm0 .8c-.436 0-.855.169-1.164.469-.309.3-.482.707-.482 1.131v8.8c0 .424.173.831.482 1.131.309.3.728.469 1.165.469h9.058c.437 0 .856-.169 1.165-.469.309-.3.482-.707.482-1.131V4.8c0-.424-.173-.831-.482-1.131A1.672 1.672 0 0011.53 3.2h-.823v2.4H3.294V3.2h-.823zm1.648 1.6h5.764V3.2H4.118v1.6zM7 .8c-.437 0-.856.169-1.165.469-.309.3-.482.707-.482 1.131h3.294c0-.424-.173-.831-.482-1.131A1.672 1.672 0 007 .8zM2.47 7.2h9.06V8H2.47v-.8zm0 2.4h9.06v.8H2.47v-.8zm0 2.4h7.412v.8H2.471V12z" fill="#fff"></path>
  </symbol>
  <symbol fill="none" xmlns="http://www.w3.org/2000/svg" viewBox="0 0 18 17" id="practices">
    <path d="M2.842 0h3.79l2.842 3.212h5.684c.754 0 1.477.339 2.01.941.533.603.832 1.42.832 2.272v6.425c0 .852-.3 1.67-.832 2.272-.533.602-1.256.94-2.01.94H2.842c-.754 0-1.477-.338-2.01-.94C.3 14.519 0 13.702 0 12.85V3.213C0 2.36.3 1.543.832.94 1.365.338 2.088 0 2.842 0zm0 1.07c-.502 0-.984.226-1.34.628a2.291 2.291 0 00-.555 1.514v9.638c0 .568.2 1.113.555 1.514.356.402.838.628 1.34.628h12.316c.502 0 .984-.226 1.34-.628a2.29 2.29 0 00.555-1.514V6.425c0-.568-.2-1.113-.555-1.514a1.791 1.791 0 00-1.34-.628H9.08L6.24 1.071H2.842z" fill="#fff"></path>
  </symbol>
  <symbol fill="none" xmlns="http://www.w3.org/2000/svg" viewBox="0 0 14 17" id="publications">
    <path d="M0 0h14v.945H0V0zm7.412 3.78H14v.944H7.412V3.78zm0 3.779H14v.945H7.412v-.945zM0 11.339h10.706v.944H0v-.945zm14 3.779v.944H0v-.944h14zM0 2.835h5.765v6.614H0V2.835zm4.941.944H.824v4.725H4.94V3.779z" fill="#fff"></path>
  </symbol>
  <symbol fill="none" xmlns="http://www.w3.org/2000/svg" viewBox="0 0 14 16" id="questioning">
    <path d="M2.47 2.4h2.06c0-.637.26-1.247.723-1.697A2.508 2.508 0 017 0c.655 0 1.284.253 1.747.703.463.45.724 1.06.724 1.697h2.058c.656 0 1.284.253 1.747.703.464.45.724 1.06.724 1.697v8.8c0 .636-.26 1.247-.724 1.697A2.508 2.508 0 0111.53 16H2.471a2.508 2.508 0 01-1.747-.703A2.366 2.366 0 010 13.6V4.8c0-.637.26-1.247.724-1.697A2.508 2.508 0 012.47 2.4zm0 .8c-.436 0-.855.169-1.164.469-.309.3-.482.707-.482 1.131v8.8c0 .424.173.831.482 1.131.309.3.728.469 1.165.469h9.058c.437 0 .856-.169 1.165-.469.309-.3.482-.707.482-1.131V4.8c0-.424-.173-.831-.482-1.131A1.672 1.672 0 0011.53 3.2h-.823v2.4H3.294V3.2h-.823zm1.648 1.6h5.764V3.2H4.118v1.6zM7 .8c-.437 0-.856.169-1.165.469-.309.3-.482.707-.482 1.131h3.294c0-.424-.173-.831-.482-1.131A1.672 1.672 0 007 .8zm4.653 6.88L5.765 13.4l-2.636-2.56.583-.566 2.053 1.995 5.305-5.155.582.566z" fill="#fff"></path>
  </symbol>
  <symbol fill="none" xmlns="http://www.w3.org/2000/svg" viewBox="0 0 16 17" id="rating">
    <path d="M0 16.063v-4.725h3.368v4.725H0zm.842-3.78v2.835h1.684v-2.835H.842zm3.369 3.78V7.559h3.368v8.503H4.211zm.842-7.56v6.615h1.684V8.504H5.053zm3.368 7.56V3.778h3.369v12.284H8.42zm.842-11.339v10.394h1.684V4.724H9.263zm3.369 11.338V0H16v16.063h-3.368zM13.474.945v14.173h1.684V.945h-1.684z" fill="#fff"></path>
  </symbol>
  <symbol fill="none" xmlns="http://www.w3.org/2000/svg" viewBox="0 0 14 16" id="requirements">
    <path d="M3 0h8c.796 0 1.559.281 2.121.781.563.5.879 1.178.879 1.886V16l-7-2.667L0 16V2.667C0 1.959.316 1.28.879.78 1.44.281 2.204 0 3 0zm0 .889c-.53 0-1.04.187-1.414.52A1.684 1.684 0 001 2.668v11.99l6-2.264 6 2.264V2.667c0-.472-.21-.924-.586-1.257A2.134 2.134 0 0011 .889H3z" fill="#fff"></path>
  </symbol>
  <symbol fill="none" xmlns="http://www.w3.org/2000/svg" viewBox="0 0 14 16" id="schedule">
    <path d="M2.47 0h9.06c.655 0 1.283.337 1.746.937.464.6.724 1.414.724 2.263v9.6c0 .849-.26 1.663-.724 2.263-.463.6-1.091.937-1.747.937H2.471c-.656 0-1.284-.337-1.747-.937C.26 14.463 0 13.649 0 12.8V3.2C0 2.351.26 1.537.724.937 1.187.337 1.815 0 2.47 0zM.825 12.8c0 .566.173 1.108.482 1.508.309.4.728.625 1.165.625h4.117v-3.2H.824V12.8zm5.764-5.333H.824v3.2h5.764v-3.2zm4.941 7.466c.437 0 .856-.224 1.165-.624.309-.4.482-.943.482-1.509v-1.067H7.413v3.2h4.117zm1.648-7.466H7.412v3.2h5.765v-3.2zM.824 6.4h5.764V3.2H.824v3.2zm6.588 0h5.765V3.2H7.412v3.2z" fill="#fff"></path>
  </symbol>
  <symbol fill="none" xmlns="http://www.w3.org/2000/svg" viewBox="0 0 14 16" id="subscription">
    <path d="M2.21 0h9.58c.586 0 1.148.337 1.563.937.414.6.647 1.414.647 2.263v9.6c0 .849-.233 1.663-.647 2.263-.415.6-.977.937-1.563.937H2.21c-.586 0-1.148-.337-1.563-.937C.233 14.463 0 13.649 0 12.8V3.2C0 2.351.233 1.537.647.937 1.062.337 1.624 0 2.211 0zm0 1.067c-.39 0-.765.224-1.042.625-.276.4-.431.942-.431 1.508v1.067h12.526V3.2c0-.566-.155-1.108-.431-1.508-.277-.4-.652-.625-1.043-.625H2.212zM.738 12.8c0 .566.155 1.108.431 1.508.277.4.652.625 1.043.625h9.579c.39 0 .765-.224 1.042-.624.276-.4.431-.943.431-1.509V7.467H.737V12.8zm1.474-1.067h2.947V12.8H2.21v-1.067zm4.42 0h2.211V12.8h-2.21v-1.067zm-5.894-6.4V6.4h12.526V5.333H.737z" fill="#fff"></path>
  </symbol>
  <symbol fill="none" xmlns="http://www.w3.org/2000/svg" viewBox="0 0 16 17" id="user">
    <path d="M8 9.637c4.418 0 8 1.678 8 3.748v2.678H0v-2.678c0-2.07 3.582-3.748 8-3.748zm6.933 3.748c0-1.477-3.104-2.677-6.933-2.677-3.83 0-6.933 1.2-6.933 2.677v1.607h13.866v-1.607zM8 0c.99 0 1.94.395 2.64 1.098a3.755 3.755 0 010 5.3 3.726 3.726 0 01-5.28 0 3.755 3.755 0 010-5.3A3.726 3.726 0 018 0zm0 1.07c-.707 0-1.386.283-1.886.785a2.682 2.682 0 000 3.786 2.661 2.661 0 003.772 0 2.682 2.682 0 000-3.786A2.661 2.661 0 008 1.07z" fill="#fff"></path>
  </symbol>
  <symbol fill="none" xmlns="http://www.w3.org/2000/svg" viewBox="0 0 14 16" id="works">
    <path d="M2.47 2.4h2.06c0-.637.26-1.247.723-1.697A2.508 2.508 0 017 0c.655 0 1.284.253 1.747.703.463.45.724 1.06.724 1.697h2.058c.656 0 1.284.253 1.747.703.464.45.724 1.06.724 1.697v8.8c0 .636-.26 1.247-.724 1.697A2.508 2.508 0 0111.53 16H2.471a2.508 2.508 0 01-1.747-.703A2.366 2.366 0 010 13.6V4.8c0-.637.26-1.247.724-1.697A2.508 2.508 0 012.47 2.4zm0 .8c-.436 0-.855.169-1.164.469-.309.3-.482.707-.482 1.131v8.8c0 .424.173.831.482 1.131.309.3.728.469 1.165.469h9.058c.437 0 .856-.169 1.165-.469.309-.3.482-.707.482-1.131V4.8c0-.424-.173-.831-.482-1.131A1.672 1.672 0 0011.53 3.2h-.823v2.4H3.294V3.2h-.823zm1.648 1.6h5.764V3.2H4.118v1.6zM7 .8c-.437 0-.856.169-1.165.469-.309.3-.482.707-.482 1.131h3.294c0-.424-.173-.831-.482-1.131A1.672 1.672 0 007 .8z" fill="#fff"></path>
  </symbol>
  <symbol fill="none" xmlns="http://www.w3.org/2000/svg" viewBox="0 0 10 16" id="appraisals">
    <path d="M10 0L6.122 5.884H10L3.333 16V9.247H0V0h10zM4.327 6.725L8.204.84H1.111v7.565h3.333v4.024l3.76-5.705H4.327z" fill="#fff"></path>
  </symbol>
  <symbol fill="none" xmlns="http://www.w3.org/2000/svg" viewBox="0 0 16 17" id="catalog">
    <path d="M.8 13.526c0 .449.169.879.469 1.196.3.317.707.495 1.131.495h5.411a2.61 2.61 0 01-.611-1.69H.8zm8.8 1.691c.424 0 .831-.178 1.131-.495.3-.317.469-.747.469-1.196V2.536c0-.65.231-1.243.611-1.69H4.8c-.424 0-.831.178-1.131.495A1.74 1.74 0 003.2 2.536v10.145H8v.845c0 .449.169.879.469 1.196.3.317.707.495 1.131.495zM2.4 2.537c0-.673.253-1.319.703-1.794A2.337 2.337 0 014.8 0h8.8c.636 0 1.247.267 1.697.743.45.475.703 1.12.703 1.793v1.691h-4v9.3c0 .672-.253 1.317-.703 1.793-.45.475-1.06.742-1.697.742H2.4a2.337 2.337 0 01-1.697-.742A2.611 2.611 0 010 13.526v-.845h2.4V2.536zm12.8.845v-.846a1.74 1.74 0 00-.469-1.195A1.558 1.558 0 0013.6.845c-.424 0-.831.179-1.131.496A1.74 1.74 0 0012 2.536v.846h3.2z" fill="#fff"></path>
  </symbol>
  <symbol fill="none" xmlns="http://www.w3.org/2000/svg" viewBox="0 0 14 17" id="ebs">
    <path d="M7 0l7 3.707v1.647H0V3.707L7 0zm3.111 6.178h3.111v6.59h-3.11v-6.59zM0 16.062v-2.47h14v2.47H0zm5.444-9.884h3.112v6.59H5.444v-6.59zm-4.666 0h3.11v6.59H.779v-6.59zm0 8.237v.824h12.444v-.824H.778zm.778-7.413v4.942H3.11V7.002H1.556zm4.666 0v4.942h1.556V7.002H6.222zm4.667 0v4.942h1.555V7.002H10.89zM.778 4.53h12.444v-.329L7 .891.778 4.2v.33z" fill="#fff"></path>
  </symbol>
</svg>